# xmcd
#
# Track frame offsets: 
#        150
#        20010
#        43615
#        62827
#        84755
#        106040
#        132205
#        152825
#        168859
#        185880
#        210580
#        231934
#
# Disc length: 3354 seconds
#
# Revision: 1
# Processed by: cddbd v1.5.2PL0 Copyright (c) Steve Scherf et al.
# Submitted via: ExactAudioCopyFreeDBPlugin 1.0
#
DISCID=980d180c
DTITLE=卓依婷 - DTS51蝴蝶情事1
DYEAR=1999
DGENRE=DTS
TTITLE0=永远是朋友
TTITLE1=潮湿的心
TTITLE2=潇洒走一回
TTITLE3=你看你看月亮的脸
TTITLE4=曾经心疼
TTITLE5=心雨
TTITLE6=风中有朵雨做的云
TTITLE7=萍聚
TTITLE8=千年等一回
TTITLE9=谁的眼泪的在飞
TTITLE10=无声的雨
TTITLE11=迟来的爱
EXTD=
EXTT0=
EXTT1=
EXTT2=
EXTT3=
EXTT4=
EXTT5=
EXTT6=
EXTT7=
EXTT8=
EXTT9=
EXTT10=
EXTT11=
PLAYORDER=
